<?xml version="1.0" encoding="utf-8"?>
<!-- Generator: Adobe Illustrator 16.0.0, SVG Export Plug-In . SVG Version: 6.00 Build 0)  -->
<!DOCTYPE svg PUBLIC "-//W3C//DTD SVG 1.1//EN" "http://www.w3.org/Graphics/SVG/1.1/DTD/svg11.dtd">
<svg version="1.1" id="Layer_1" xmlns="http://www.w3.org/2000/svg" xmlns:xlink="http://www.w3.org/1999/xlink" x="0px" y="0px"
	 width="512px" height="512px" viewBox="0 0 512 512" enable-background="new 0 0 512 512" xml:space="preserve">
<g>
	<g>
		<path fill="#8F9799" d="M486.598,256.396c0-127.007-103.193-230.598-230.599-230.598c-127.404,0-230.201,103.193-230.201,230.598
			c0,127.405,103.193,230.202,230.201,230.202S486.598,383.404,486.598,256.396z M57.947,256.396
			c0-109.146,88.905-198.052,198.053-198.052s198.053,88.905,198.053,198.052c0,109.147-88.905,198.053-198.053,198.053
			S57.947,365.544,57.947,256.396z"/>
		<path fill="#8F9799" d="M371.1,234.567c3.176-3.176,4.764-7.145,4.764-11.51c0-3.97-1.588-8.335-4.764-11.511
			c-6.35-6.35-16.669-6.35-23.02,0l-93.271,93.271l-93.271-93.271c-6.351-6.35-16.67-6.35-23.02,0
			c-6.351,6.351-6.351,16.67,0,23.021l104.781,104.781c3.175,3.175,7.144,4.763,11.51,4.763s8.335-1.588,11.51-4.763L371.1,234.567z
			"/>
	</g>
</g>
</svg>
